<svg xmlns="http://www.w3.org/2000/svg" xmlns:xlink="http://www.w3.org/1999/xlink" viewBox="0 0 24 30" version="1.1" x="0px" y="0px"><title>icons /  Arrow</title><desc>Created with Sketch.</desc><g stroke="none" stroke-width="1" fill="none" fill-rule="evenodd"><path d="M20,3 L20.0193545,3.00018615 C20.042681,3.00063489 20.0659949,3.00189498 20.0892501,3.00396641 L20,3 C20.0506203,3 20.1003621,3.00376119 20.1489612,3.01101934 C20.165949,3.01362808 20.1833753,3.01670217 20.2007258,3.02024007 C20.2227461,3.0246398 20.2444365,3.02983363 20.2658396,3.03572097 C20.2814633,3.04009773 20.2968513,3.04472872 20.3121425,3.04973809 C20.3317977,3.05612249 20.3515792,3.06331574 20.3710585,3.07110396 C20.3887956,3.07819642 20.4060985,3.08567905 20.4232215,3.09367336 C20.4438914,3.10337664 20.4642939,3.11379392 20.484277,3.12487577 C20.4963944,3.13149883 20.5086131,3.13860692 20.5207088,3.14599545 C20.546275,3.1617187 20.5711307,3.17849009 20.5951593,3.19631351 C20.602603,3.20175344 20.6098424,3.20728448 20.6170223,3.21292769 C20.6801818,3.26255171 20.7374483,3.31981825 20.787214,3.38324992 L20.7071068,3.29289322 C20.7425008,3.32828727 20.774687,3.36567442 20.8036654,3.40469339 C20.8215099,3.42886931 20.8382813,3.45372505 20.8539326,3.47933981 C20.8613931,3.49138689 20.8685012,3.50360556 20.8753288,3.5159379 C20.8862061,3.53570605 20.8966234,3.5561086 20.9063462,3.57690085 C20.914321,3.5939015 20.9218036,3.61120435 20.9287745,3.62866398 C20.9366843,3.6484208 20.9438775,3.66820232 20.9504533,3.68826359 C20.9552713,3.70314866 20.9599023,3.71853672 20.9641549,3.73400703 C20.9701664,3.75556352 20.9753602,3.77725392 20.9798348,3.7992059 C20.9832978,3.81662474 20.9863719,3.83405099 20.9889822,3.85153313 C20.9905825,3.86176411 20.9920139,3.87254508 20.9932723,3.88337887 L20.996384,3.91477577 C20.997855,3.93207691 20.9988772,3.94940903 20.9994506,3.96675322 L21,4 L21,14.9737904 C21,15.5260751 20.5522847,15.9737904 20,15.9737904 C19.4871642,15.9737904 19.0644928,15.5877502 19.0067277,15.0904115 L19,14.9737904 L18.999,6.415 L5.70710678,19.7071068 C5.31658249,20.0976311 4.68341751,20.0976311 4.29289322,19.7071068 C3.93240926,19.3466228 3.90467972,18.7793918 4.20970461,18.3871006 L4.29289322,18.2928932 L17.585,4.999 L9.00012273,5 C8.48728689,5 8.06461557,4.61395981 8.00685046,4.11662113 L8.00012273,4 C8.00012273,3.48716416 8.38616292,3.06449284 8.8835016,3.00672773 L9.00012273,3 L20,3 Z" fill="#000000" fill-rule="nonzero"/></g></svg>