<svg width="24" height="30" viewBox="0 0 24 30" fill="none" xmlns="http://www.w3.org/2000/svg">
<g clip-path="url(#clip0_1582_10354)">
<path d="M0.707104 15.707L0.69355 15.6932C0.677373 15.6764 0.661778 15.659 0.646799 15.6411L0.707104 15.707C0.67131 15.6713 0.638796 15.6334 0.609563 15.5939C0.599396 15.5801 0.589248 15.5656 0.579481 15.5508C0.567022 15.5321 0.555356 15.5131 0.544385 15.4938C0.536432 15.4797 0.528826 15.4655 0.521555 15.4512C0.512171 15.4327 0.50327 15.4137 0.495003 15.3944C0.487476 15.3768 0.480533 15.3593 0.474078 15.3415C0.466323 15.3201 0.459262 15.2983 0.452968 15.2763C0.449083 15.2631 0.44547 15.2494 0.442142 15.2356C0.435182 15.2064 0.429465 15.177 0.425077 15.1474C0.42366 15.1383 0.422453 15.1292 0.421366 15.1202C0.411795 15.0404 0.411794 14.9594 0.421458 14.8794L0.41421 14.9999C0.41421 14.9499 0.417888 14.9007 0.424988 14.8526C0.429465 14.8229 0.435181 14.7935 0.442226 14.7643C0.445469 14.7505 0.449084 14.7368 0.452976 14.7233C0.459263 14.7016 0.466324 14.6798 0.474151 14.6582C0.480534 14.6406 0.487477 14.623 0.494894 14.6058C0.503271 14.5862 0.512172 14.5671 0.521708 14.5483C0.528826 14.5344 0.536432 14.5202 0.544364 14.5063C0.555356 14.4868 0.567021 14.4678 0.579379 14.4491C0.589248 14.4343 0.599397 14.4198 0.609913 14.4056C0.616016 14.3972 0.622626 14.3886 0.629397 14.3801L0.649398 14.3557C0.660592 14.3424 0.672124 14.3294 0.683983 14.3167L0.707104 14.2928L8.46674 6.53319C8.85727 6.14266 9.49043 6.14266 9.88096 6.53319C10.2436 6.89582 10.2695 7.46766 9.95866 7.86018L9.88096 7.9474L3.82969 14.0001L22.6274 13.9999C23.1797 13.9999 23.6274 14.4477 23.6274 14.9999C23.6274 15.5097 23.2459 15.9304 22.7529 15.9921L22.6274 15.9999L3.82827 16.0012L9.89941 22.0709C10.262 22.4335 10.2879 23.0054 9.97711 23.3979L9.89941 23.4851C9.53678 23.8478 8.96493 23.8737 8.57241 23.5628L8.48519 23.4851L0.707104 15.707Z" fill="black"/>
</g>
<defs>
<clipPath id="clip0_1582_10354">
<rect width="24" height="30" fill="white"/>
</clipPath>
</defs>
</svg>
