<svg width="24" height="30" viewBox="0 0 24 30" fill="none" xmlns="http://www.w3.org/2000/svg">
<g clip-path="url(#clip0_1582_10348)">
<path d="M23.3345 14.2928L23.3481 14.3067C23.3643 14.3235 23.3798 14.3408 23.3948 14.3587L23.3345 14.2928C23.3703 14.3286 23.4028 14.3665 23.4321 14.406C23.4422 14.4198 23.4524 14.4343 23.4621 14.4491C23.4746 14.4678 23.4863 14.4868 23.4972 14.5061C23.5052 14.5202 23.5128 14.5344 23.5201 14.5487C23.5295 14.5671 23.5384 14.5862 23.5466 14.6055C23.5542 14.623 23.5611 14.6406 23.5675 14.6583C23.5753 14.6798 23.5824 14.7016 23.5887 14.7236C23.5925 14.7368 23.5962 14.7505 23.5995 14.7643C23.6064 14.7935 23.6122 14.8229 23.6165 14.8525C23.618 14.8616 23.6192 14.8706 23.6203 14.8797C23.6298 14.9594 23.6298 15.0404 23.6202 15.1205L23.6274 14.9999C23.6274 15.05 23.6237 15.0992 23.6166 15.1473C23.6122 15.177 23.6064 15.2064 23.5994 15.2356C23.5962 15.2494 23.5925 15.2631 23.5887 15.2766C23.5824 15.2983 23.5753 15.3201 23.5675 15.3416C23.5611 15.3593 23.5541 15.3768 23.5467 15.3941C23.5384 15.4137 23.5295 15.4327 23.5199 15.4516C23.5128 15.4655 23.5052 15.4797 23.4973 15.4936C23.4863 15.5131 23.4746 15.5321 23.4622 15.5508C23.4524 15.5656 23.4422 15.5801 23.4317 15.5943C23.4256 15.6026 23.419 15.6113 23.4122 15.6198L23.3922 15.6442C23.381 15.6575 23.3695 15.6705 23.3576 15.6832L23.3345 15.707L15.5749 23.4667C15.1844 23.8572 14.5512 23.8572 14.1607 23.4667C13.798 23.1041 13.7721 22.5322 14.083 22.1397L14.1607 22.0525L20.2119 15.9998L1.41421 15.9999C0.861928 15.9999 0.414213 15.5522 0.414213 14.9999C0.414213 14.4901 0.795699 14.0694 1.28878 14.0077L1.41421 13.9999L20.2134 13.9987L14.1422 7.92896C13.7796 7.56633 13.7537 6.99448 14.0645 6.60197L14.1422 6.51475C14.5049 6.15212 15.0767 6.12622 15.4692 6.43704L15.5564 6.51475L23.3345 14.2928Z" fill="black"/>
</g>
<defs>
<clipPath id="clip0_1582_10348">
<rect width="24" height="30" fill="white"/>
</clipPath>
</defs>
</svg>
